<svg width="600" height="400" viewBox="0 0 600 400" fill="none" xmlns="http://www.w3.org/2000/svg">
  <!-- Main background shape with gradient -->
  <circle cx="300" cy="200" r="180" fill="url(#bgGradient)" />
  
  <!-- Team members with gradients -->
  <circle cx="180" cy="200" r="50" fill="url(#orangeGradient)" filter="url(#shadowFilter)" />
  <circle cx="310" cy="150" r="60" fill="url(#primaryGradient)" filter="url(#shadowFilter)" />
  <circle cx="420" cy="220" r="45" fill="url(#amberGradient)" filter="url(#shadowFilter)" />
  
  <!-- Connection lines with glow effect -->
  <line x1="180" y1="200" x2="310" y2="150" stroke="url(#lineGradient)" stroke-width="3" filter="url(#glowFilter)" />
  <line x1="310" y1="150" x2="420" y2="220" stroke="url(#lineGradient)" stroke-width="3" filter="url(#glowFilter)" />
  <line x1="180" y1="200" x2="420" y2="220" stroke="url(#lineGradient)" stroke-width="3" filter="url(#glowFilter)" />
  
  <!-- Icons inside circles -->
  <g transform="translate(155, 175)">
    <rect width="50" height="50" rx="10" fill="white" />
    <path d="M25,15 C22,15 20,17 20,20 C20,23 22,25 25,25 C28,25 30,23 30,20 C30,17 28,15 25,15 Z M35,30 C35,27 31,25 25,25 C19,25 15,27 15,30 L15,35 L35,35 L35,30 Z" fill="#F97316" />
  </g>
  
  <g transform="translate(285, 125)">
    <rect width="50" height="50" rx="10" fill="white" />
    <path d="M30,15 L30,20 L35,20 L35,25 L30,25 L30,30 L25,30 L25,25 L20,25 L20,20 L25,20 L25,15 L30,15 Z M15,30 C15,27 19,25 25,25 C31,25 35,27 35,30 L35,35 L15,35 L15,30 Z" fill="#EA580C" />
  </g>
  
  <g transform="translate(395, 195)">
    <rect width="50" height="50" rx="10" fill="white" />
    <path d="M25,15 L35,25 L30,30 L25,25 L20,30 L15,25 L25,15 Z M35,30 L35,35 L15,35 L15,30 C15,27 19,25 25,25 C31,25 35,27 35,30 Z" fill="#D97706" />
  </g>
  
  <!-- Decorative elements -->
  <circle cx="250" cy="240" r="10" fill="#FDBA74" filter="url(#glowLightFilter)" />
  <circle cx="370" cy="180" r="12" fill="#FB923C" filter="url(#glowLightFilter)" />
  <circle cx="220" cy="150" r="10" fill="#FED7AA" filter="url(#glowLightFilter)" />
  
  <!-- Additional modern elements -->
  <path d="M130,120 Q180,90 210,140 Q240,190 290,160 Q340,130 370,200" stroke="rgba(249, 115, 22, 0.3)" stroke-width="2" stroke-dasharray="6 4" />
  <path d="M410,130 Q380,150 350,120 Q320,90 280,110 Q240,130 210,100" stroke="rgba(217, 119, 6, 0.3)" stroke-width="2" stroke-dasharray="6 4" />
  
  <!-- Small floating particles -->
  <circle cx="140" cy="180" r="4" fill="#FB923C">
    <animate attributeName="cy" values="180;175;180" dur="3s" repeatCount="indefinite" />
  </circle>
  <circle cx="220" cy="220" r="3" fill="#F97316">
    <animate attributeName="cy" values="220;225;220" dur="2.5s" repeatCount="indefinite" />
  </circle>
  <circle cx="350" cy="120" r="5" fill="#EA580C">
    <animate attributeName="cy" values="120;115;120" dur="4s" repeatCount="indefinite" />
  </circle>
  <circle cx="400" cy="180" r="3" fill="#FDBA74">
    <animate attributeName="cy" values="180;185;180" dur="3.5s" repeatCount="indefinite" />
  </circle>
  
  <!-- Definitions -->
  <defs>
    <!-- Gradients -->
    <linearGradient id="bgGradient" x1="0%" y1="0%" x2="100%" y2="100%">
      <stop offset="0%" stop-color="#FFF7ED" />
      <stop offset="100%" stop-color="#FFEDD5" />
    </linearGradient>
    
    <linearGradient id="primaryGradient" x1="0%" y1="0%" x2="100%" y2="100%">
      <stop offset="0%" stop-color="#F97316" />
      <stop offset="100%" stop-color="#EA580C" />
    </linearGradient>
    
    <linearGradient id="orangeGradient" x1="0%" y1="0%" x2="100%" y2="100%">
      <stop offset="0%" stop-color="#FB923C" />
      <stop offset="100%" stop-color="#F97316" />
    </linearGradient>
    
    <linearGradient id="amberGradient" x1="0%" y1="0%" x2="100%" y2="100%">
      <stop offset="0%" stop-color="#F59E0B" />
      <stop offset="100%" stop-color="#D97706" />
    </linearGradient>
    
    <linearGradient id="lineGradient" x1="0%" y1="0%" x2="100%" y2="0%">
      <stop offset="0%" stop-color="#C2410C" />
      <stop offset="100%" stop-color="#B45309" />
    </linearGradient>
    
    <!-- Filters -->
    <filter id="shadowFilter" x="-20%" y="-20%" width="140%" height="140%">
      <feDropShadow dx="0" dy="4" stdDeviation="6" flood-opacity="0.15" />
    </filter>
    
    <filter id="glowFilter" x="-20%" y="-20%" width="140%" height="140%">
      <feGaussianBlur stdDeviation="2" result="blur" />
      <feComposite in="SourceGraphic" in2="blur" operator="over" />
    </filter>
    
    <filter id="glowLightFilter" x="-50%" y="-50%" width="200%" height="200%">
      <feGaussianBlur stdDeviation="3" result="blur" />
      <feComposite in="SourceGraphic" in2="blur" operator="over" />
    </filter>
  </defs>
</svg> 